<svg xmlns="http://www.w3.org/2000/svg" width="16.694" height="11.555" viewBox="0 0 16.694 11.555">
  <path id="Path_1060" data-name="Path 1060" d="M-6.19,36.673a.963.963,0,0,1,.167-.012H6.7l-.207-.1a1.928,1.928,0,0,1-.545-.386L3.285,33.514a1,1,0,0,1-.14-1.277.964.964,0,0,1,1.446-.125l4.82,4.82a.964.964,0,0,1,0,1.363h0l-4.82,4.82a.964.964,0,0,1-1.446-.1,1,1,0,0,1,.14-1.277l2.661-2.67a1.928,1.928,0,0,1,.482-.352l.289-.13H-5.971a1,1,0,0,1-1.017-.81A.964.964,0,0,1-6.19,36.673Z" transform="translate(7 -31.842)" fill="#fff"/>
</svg>
