<svg xmlns="http://www.w3.org/2000/svg" width="28" height="28" viewBox="0 0 28 28">
  <g id="Group_1865" data-name="Group 1865" transform="translate(-1059 -432)">
    <g id="Group_1830" data-name="Group 1830" transform="translate(19 20)">
      <g id="Rectangle_917" data-name="Rectangle 917" transform="translate(1040 412)" fill="#fff" stroke="#118fef" stroke-width="1">
        <rect width="28" height="28" rx="14" stroke="none"/>
        <rect x="0.5" y="0.5" width="27" height="27" rx="13.5" fill="none"/>
      </g>
    </g>
    <g id="calendar" transform="translate(1065.901 438.901)">
      <g id="Group_1778" data-name="Group 1778">
        <g id="Group_1777" data-name="Group 1777">
          <path id="Path_1487" data-name="Path 1487" d="M13.643,9.761a.555.555,0,0,0,.555-.555V3.327a2.221,2.221,0,0,0-2.218-2.218h-.721V.555a.555.555,0,0,0-1.109,0v.555H7.625V.555a.555.555,0,0,0-1.109,0v.555h-2.5V.555a.555.555,0,1,0-1.109,0v.555H2.218A2.221,2.221,0,0,0,0,3.327v8.651A2.221,2.221,0,0,0,2.218,14.2h9.761A2.221,2.221,0,0,0,14.2,11.979a.555.555,0,1,0-1.109,0,1.11,1.11,0,0,1-1.109,1.109H2.218a1.11,1.11,0,0,1-1.109-1.109V3.327A1.11,1.11,0,0,1,2.218,2.218h.693v.555a.555.555,0,1,0,1.109,0V2.218h2.5v.555a.555.555,0,1,0,1.109,0V2.218h2.523v.555a.555.555,0,0,0,1.109,0V2.218h.721a1.11,1.11,0,0,1,1.109,1.109V9.206A.555.555,0,0,0,13.643,9.761Z" fill="#118fef"/>
        </g>
      </g>
      <g id="Group_1780" data-name="Group 1780" transform="translate(2.71 4.848)">
        <g id="Group_1779" data-name="Group 1779" transform="translate(0)">
          <circle id="Ellipse_330" data-name="Ellipse 330" cx="0.592" cy="0.592" r="0.592" fill="#118fef"/>
        </g>
      </g>
      <g id="Group_1782" data-name="Group 1782" transform="translate(7.588 4.848)">
        <g id="Group_1781" data-name="Group 1781" transform="translate(0 0)">
          <circle id="Ellipse_331" data-name="Ellipse 331" cx="0.592" cy="0.592" r="0.592" fill="#118fef"/>
        </g>
      </g>
      <g id="Group_1784" data-name="Group 1784" transform="translate(10.298 4.848)">
        <g id="Group_1783" data-name="Group 1783" transform="translate(0 0)">
          <circle id="Ellipse_332" data-name="Ellipse 332" cx="0.592" cy="0.592" r="0.592" fill="#118fef"/>
        </g>
      </g>
      <g id="Group_1786" data-name="Group 1786" transform="translate(2.71 7.588)">
        <g id="Group_1785" data-name="Group 1785" transform="translate(0 0)">
          <circle id="Ellipse_333" data-name="Ellipse 333" cx="0.592" cy="0.592" r="0.592" fill="#118fef"/>
        </g>
      </g>
      <g id="Group_1788" data-name="Group 1788" transform="translate(2.71 10.336)">
        <g id="Group_1787" data-name="Group 1787" transform="translate(0 0)">
          <circle id="Ellipse_334" data-name="Ellipse 334" cx="0.592" cy="0.592" r="0.592" fill="#118fef"/>
        </g>
      </g>
      <g id="Group_1790" data-name="Group 1790" transform="translate(5.42 4.848)">
        <g id="Group_1789" data-name="Group 1789" transform="translate(0 0)">
          <circle id="Ellipse_335" data-name="Ellipse 335" cx="0.592" cy="0.592" r="0.592" fill="#118fef"/>
        </g>
      </g>
      <g id="Group_1792" data-name="Group 1792" transform="translate(5.42 7.588)">
        <g id="Group_1791" data-name="Group 1791" transform="translate(0 0)">
          <circle id="Ellipse_336" data-name="Ellipse 336" cx="0.592" cy="0.592" r="0.592" fill="#118fef"/>
        </g>
      </g>
      <g id="Group_1794" data-name="Group 1794" transform="translate(5.42 10.336)">
        <g id="Group_1793" data-name="Group 1793" transform="translate(0 0)">
          <circle id="Ellipse_337" data-name="Ellipse 337" cx="0.592" cy="0.592" r="0.592" fill="#118fef"/>
        </g>
      </g>
      <g id="Group_1796" data-name="Group 1796" transform="translate(7.588 7.588)">
        <g id="Group_1795" data-name="Group 1795" transform="translate(0 0)">
          <circle id="Ellipse_338" data-name="Ellipse 338" cx="0.592" cy="0.592" r="0.592" fill="#118fef"/>
        </g>
      </g>
      <g id="Group_1798" data-name="Group 1798" transform="translate(10.298 7.588)">
        <g id="Group_1797" data-name="Group 1797" transform="translate(0 0)">
          <circle id="Ellipse_339" data-name="Ellipse 339" cx="0.592" cy="0.592" r="0.592" fill="#118fef"/>
        </g>
      </g>
      <g id="Group_1800" data-name="Group 1800" transform="translate(7.588 10.336)">
        <g id="Group_1799" data-name="Group 1799" transform="translate(0 0)">
          <circle id="Ellipse_340" data-name="Ellipse 340" cx="0.592" cy="0.592" r="0.592" fill="#118fef"/>
        </g>
      </g>
    </g>
  </g>
</svg>
