<svg xmlns="http://www.w3.org/2000/svg" width="26" height="26" viewBox="0 0 26 26"><defs><style>.a{opacity:0.2;}.b{fill:#00284e;}.c{fill:#fff;}</style></defs><g class="a" transform="translate(8 5)"><rect class="b" width="26" height="26" rx="13" transform="translate(-8 -5)"/><g transform="translate(0.126 3.126)"><path class="c" d="M5.948,4.89,9.593,1.245a.534.534,0,0,0,0-.754L9.273.172a.535.535,0,0,0-.754,0L4.874,3.816,1.229.172a.534.534,0,0,0-.754,0L.156.491a.534.534,0,0,0,0,.754L3.8,4.89.156,8.535a.535.535,0,0,0,0,.754l.319.319a.534.534,0,0,0,.754,0L4.874,5.963,8.519,9.608a.529.529,0,0,0,.377.156h0a.529.529,0,0,0,.377-.156l.319-.319a.535.535,0,0,0,0-.754Z" transform="translate(0 -0.016)"/></g></g></svg>