<svg xmlns="http://www.w3.org/2000/svg" width="40" height="27" viewBox="0 0 40 27">
  <g id="Group_1" data-name="Group 1" transform="translate(-269 -144)">
    <g id="Rectangle_1" data-name="Rectangle 1" transform="translate(269 144)" fill="none" stroke="#00284e" stroke-width="1">
      <rect width="40" height="27" rx="13.5" stroke="none"/>
      <rect x="0.5" y="0.5" width="39" height="26" rx="13" fill="none"/>
    </g>
    <path id="downArrowWhite" d="M-6.362,35.653a.759.759,0,0,1,.132-.01H3.807l-.163-.076a1.521,1.521,0,0,1-.43-.3l-2.1-2.1A.787.787,0,0,1,1,32.153a.76.76,0,0,1,1.141-.1l3.8,3.8a.76.76,0,0,1,0,1.075h0l-3.8,3.8A.76.76,0,0,1,1,40.657a.787.787,0,0,1,.11-1.007l2.1-2.106a1.521,1.521,0,0,1,.38-.278l.228-.1H-6.188a.787.787,0,0,1-.8-.639.76.76,0,0,1,.626-.874Z" transform="translate(325.397 157.917) rotate(90)" fill="#00284e"/>
  </g>
</svg>
