<svg xmlns="http://www.w3.org/2000/svg" width="42" height="42" viewBox="0 0 42 42">
  <g id="Group_1866" data-name="Group 1866" transform="translate(-15 -12)">
    <g id="Group_1821" data-name="Group 1821" transform="translate(-1282.696 -1241.796)">
      <rect id="Rectangle_913" data-name="Rectangle 913" width="42" height="42" rx="21" transform="translate(1297.696 1253.796)" fill="#0578eb"/>
    </g>
    <g id="Group_1861" data-name="Group 1861" transform="translate(-2354.282 -6186.324)">
      <g id="Group_1861-2" data-name="Group 1861" transform="translate(2380.672 6206)">
        <path id="Path_1540" data-name="Path 1540" d="M43.281,12H33.1a.849.849,0,0,0-.848.848V33.878a.849.849,0,0,0,.848.848h6.71V32.91a3.433,3.433,0,0,1,1.1-2.523l.926-.882h-2.52a2.375,2.375,0,0,1-2.372-2.372v-.344a2.374,2.374,0,0,1,2.372-2.372h4.814V12.844A.849.849,0,0,0,43.281,12Z" transform="translate(-28.666 -10.978)" fill="none"/>
        <path id="Path_1541" data-name="Path 1541" d="M43.281,12H33.1a.849.849,0,0,0-.848.848V33.878a.849.849,0,0,0,.848.848h6.71V32.91a3.433,3.433,0,0,1,1.1-2.523l.926-.882h-2.52a2.375,2.375,0,0,1-2.372-2.372v-.344a2.374,2.374,0,0,1,2.372-2.372h4.814V12.844A.849.849,0,0,0,43.281,12Z" transform="translate(-28.666 -10.978)" fill="none"/>
        <path id="Path_1542" data-name="Path 1542" d="M43.281,12H33.1a.849.849,0,0,0-.848.848V33.878a.849.849,0,0,0,.848.848h6.71V32.91a3.433,3.433,0,0,1,1.1-2.523l.926-.882h-2.52a2.375,2.375,0,0,1-2.372-2.372v-.344a2.374,2.374,0,0,1,2.372-2.372h4.814V12.844A.849.849,0,0,0,43.281,12Z" transform="translate(-28.666 -10.978)" fill="none"/>
        <path id="Path_1543" data-name="Path 1543" d="M28.337,37.644v-2a.506.506,0,0,0-.084-.28l-1.058-1.6h6.135a.509.509,0,0,0,.509-.509c0-.006,0-.012,0-.018s0-.012,0-.018V30.927a2.445,2.445,0,0,1,.7-1.723l1.922-1.823,0,0a.507.507,0,0,0,.111-.158l0-.006a.516.516,0,0,0,.04-.179c0-.005,0-.009,0-.013s0-.006,0-.008a.506.506,0,0,0-.031-.169c0-.005,0-.011-.005-.016a.512.512,0,0,0-.1-.16.034.034,0,0,1,0-.006l0,0a.491.491,0,0,0-.158-.111l-.006,0a.514.514,0,0,0-.179-.039H32.32a1.356,1.356,0,0,1-1.354-1.354v-.343a1.355,1.355,0,0,1,1.354-1.354h5.834c1.047.735,2.4,3.8,1.176,8.467v0h0c-.094.372-.285.495-.744.759l.508.882a2.156,2.156,0,0,0,1.221-1.383l0,0c1.611-5.521-.5-9.283-2.162-9.882V10.862A1.868,1.868,0,0,0,36.288,9H26.111a1.868,1.868,0,0,0-1.866,1.866v3.926H23.6a1.926,1.926,0,0,0-.241,3.838,1.926,1.926,0,0,0,.241,3.838,1.928,1.928,0,0,0,0,3.855,1.928,1.928,0,1,0,0,3.855h.646V31.9a1.867,1.867,0,0,0,1.726,1.859L27.319,35.8v1.847m-3.074-8.36H23.6a1.038,1.038,0,1,1,0-2.076h.646Zm0-3.855H23.6a1.038,1.038,0,0,1,0-2.077h.646Zm0-3.856H23.6a1.038,1.038,0,1,1,0-2.076h.646Zm0-3.82H23.6a1.038,1.038,0,1,1,0-2.075h.646Zm12.891,4.681H32.321a2.374,2.374,0,0,0-2.372,2.372v.345a2.375,2.375,0,0,0,2.372,2.372h2.52l-.926.882a3.434,3.434,0,0,0-1.1,2.523v1.816H26.11a.849.849,0,0,1-.848-.848V10.862a.849.849,0,0,1,.848-.848H36.287a.849.849,0,0,1,.848.848Z" transform="translate(-21.672 -8.996)" fill="#fff"/>
        <path id="Path_1544" data-name="Path 1544" d="M44.878,16.088a1.291,1.291,0,0,0-1.29-1.29H35.873a1.291,1.291,0,0,0-1.29,1.29v18.1a1.292,1.292,0,0,0,1.29,1.29h4.311v-.7H35.873a.587.587,0,0,1-.587-.587v-18.1a.587.587,0,0,1,.587-.586h7.715a.587.587,0,0,1,.587.586v8.943h.7Z" transform="translate(-30.203 -12.83)" fill="#fff"/>
      </g>
    </g>
  </g>
</svg>
