<svg xmlns="http://www.w3.org/2000/svg" width="123.439" height="144.953" viewBox="0 0 123.439 144.953"><defs><style>.a{fill:#fff;}.b{fill:#483afa;}.c{fill:#4146f9;}</style></defs><g transform="translate(1125 -7423)"><g transform="translate(-1125 7423)"><g transform="translate(0 0)"><path class="a" d="M117.419,96.8A73.131,73.131,0,0,1,99.9,124.085c-8.8,8.588-20.312,15.413-34.231,20.281a10.473,10.473,0,0,1-3.327.587h-.125a10.62,10.62,0,0,1-2.042-.2,11.058,11.058,0,0,1-1.4-.382C44.84,139.509,33.309,132.688,24.5,124.1A72.993,72.993,0,0,1,6.993,96.819C-.082,77.62.321,56.471.645,39.476l.006-.261c.065-1.4.107-2.878.13-4.505a15.363,15.363,0,0,1,14.466-15.05c16.666-.93,29.559-6.366,40.574-17.1l.1-.088a9.285,9.285,0,0,1,12.606,0l.094.088c11.018,10.737,23.911,16.173,40.577,17.1a15.363,15.363,0,0,1,14.466,15.05c.023,1.639.065,3.111.131,4.505l0,.11C124.118,56.353,124.518,77.544,117.419,96.8Zm0,0" transform="translate(-0.5 0)"/><path class="a" d="M274.022,96.8a73.131,73.131,0,0,1-17.516,27.286c-8.8,8.588-20.312,15.413-34.231,20.281a10.473,10.473,0,0,1-3.327.587V0a9.3,9.3,0,0,1,6.179,2.466l.094.088C236.24,13.3,249.133,18.731,265.8,19.661a15.363,15.363,0,0,1,14.466,15.05c.023,1.639.065,3.111.131,4.505l0,.11C280.722,56.355,281.122,77.546,274.022,96.8Zm0,0" transform="translate(-157.104 -0.003)"/><path class="b" d="M163.147,164.524a36.171,36.171,0,0,1-36,36.126h-.127a36.126,36.126,0,1,1,0-72.252h.127A36.171,36.171,0,0,1,163.147,164.524Zm0,0" transform="translate(-65.303 -92.047)"/><path class="c" d="M254.947,164.524a36.171,36.171,0,0,1-36,36.126V128.4A36.171,36.171,0,0,1,254.947,164.524Zm0,0" transform="translate(-157.104 -92.047)"/><path class="a" d="M188.785,219.24l-16.27,16.272L169,239.028a4.257,4.257,0,0,1-6.017,0l-7.559-7.562a4.253,4.253,0,1,1,6.014-6.014l4.554,4.554,16.78-16.78a4.252,4.252,0,0,1,6.014,6.014Zm0,0" transform="translate(-110.67 -151.966)"/><path class="a" d="M235.219,219.24l-16.27,16.272V223.481l10.256-10.255a4.252,4.252,0,0,1,6.014,6.014Zm0,0" transform="translate(-157.104 -151.966)"/></g></g></g></svg>